# xmcd
#
# Track frame offsets: 
#        150
#        10096
#        22389
#        35827
#        49189
#        61903
#        74305
#        87289
#        99651
#        111117
#        123307
#        135307
#        146728
#        157000
#        167837
#        180300
#        192050
#        204265
#        219252
#        231963
#        243026
#        254921
#        265384
#        275475
#        287581
#        301384
#        315433
#
# Disc length: 4393 seconds
#
# Revision: 2
# Processed by: cddbd v1.5.2PL0 Copyright (c) Steve Scherf et al.
# Submitted via: ExactAudioCopy v1.0b1
#
DISCID=8811271b
DTITLE=Various Artist - New York Blues and R&B 1947-1955 - Disc C
DYEAR=2007
DGENRE=Blues
TTITLE0=Brownie McGhee - Yellow Moon
TTITLE1=Brownie McGhee - It's Over
TTITLE2=Brownie McGhee and Harry Van Walls - True Blues
TTITLE3=Brownie McGhee and Harry Van Walls - My Consolation
TTITLE4=Brownie McGhee and Harry Van Walls - New Sporting Life Blues
TTITLE5=Brownie McGhee and Harry Van Walls - C.C. Baby
TTITLE6=Brownie McGhee and Harry Van Walls - You Got To Love Me Baby Too
TTITLE7=Brownie McGhee and Harry Van Walls - My Other Home
TTITLE8=Brownie McGhee and Harry Van Walls - Weeping Willow
TTITLE9=Brownie McGhee and Harry Van Walls - Feed Me Baby
TTITLE10=Brownie McGhee and His Jook Block Busters - Meet You In The Mor
TTITLE10=ning
TTITLE11=Brownie McGhee and His Jook Block Busters - I Feel So Good
TTITLE12=Brownie McGhee and His Jook Block Busters - Key To The Highway
TTITLE13=Brownie McGhee and His Jook Block Busters - Stranger's Blues
TTITLE14=Brownie McGhee and His Jook Block Busters - Sittin' On Top Of T
TTITLE14=he World
TTITLE15=Brownie McGhee and His Jook Block Busters - Mean Old Frisco
TTITLE16=Brownie McGhee and His Jook Block Busters - Mean Old Frisco (Al
TTITLE16=t. Take)
TTITLE17=Brownie McGhee and His Jook Block Busters - New Bad Blood Blues
TTITLE18=Brownie McGhee and His Sugar Men - Lover (Ease My Worried Mind)
TTITLE19=Brownie McGhee and His Jook Block Busters - Dissatisfied Woman
TTITLE20=Brownie McGhee and His Jook Block Busters - Pawn Shop Blues
TTITLE21=Brownie McGhee and His Jook Block Busters - Forgive Me
TTITLE22=Brownie McGhee and His Jook Block Busters - C.C. Rider, Where D
TTITLE22=id She Go
TTITLE23=Big Tom Collins and Brownie McGhee - Heartache Blues
TTITLE24=Big Tom Collins and Brownie McGhee - Real Good Feelin'
TTITLE25=Brownie McGhee and His Jook Block Busters - A Letter To Lightni
TTITLE25=n' Hopkins
TTITLE26=Brownie McGhee and His Jook Block Busters - Smiling And Crying 
TTITLE26=The Blues
EXTD=
EXTT0=
EXTT1=
EXTT2=
EXTT3=
EXTT4=
EXTT5=
EXTT6=
EXTT7=
EXTT8=
EXTT9=
EXTT10=
EXTT11=
EXTT12=
EXTT13=
EXTT14=
EXTT15=
EXTT16=
EXTT17=
EXTT18=
EXTT19=
EXTT20=
EXTT21=
EXTT22=
EXTT23=
EXTT24=
EXTT25=
EXTT26=
PLAYORDER=
